<svg width="157" height="31" viewBox="0 0 157 31" fill="none" xmlns="http://www.w3.org/2000/svg">
<path d="M10.4299 2.74487H20.9299C24.9299 2.74487 28.1799 5.99487 28.1799 9.99487V20.4949C28.1799 22.4177 27.4161 24.2618 26.0565 25.6214C24.6968 26.981 22.8528 27.7449 20.9299 27.7449H10.4299C6.42993 27.7449 3.17993 24.4949 3.17993 20.4949V9.99487C3.17993 8.07205 3.94377 6.22799 5.30341 4.86835C6.66305 3.50871 8.50711 2.74487 10.4299 2.74487ZM10.1799 5.24487C8.98646 5.24487 7.84186 5.71898 6.99795 6.56289C6.15404 7.40681 5.67993 8.5514 5.67993 9.74487V20.7449C5.67993 23.2324 7.69243 25.2449 10.1799 25.2449H21.1799C22.3734 25.2449 23.518 24.7708 24.3619 23.9269C25.2058 23.0829 25.6799 21.9383 25.6799 20.7449V9.74487C25.6799 7.25737 23.6674 5.24487 21.1799 5.24487H10.1799ZM22.2424 7.11987C22.6568 7.11987 23.0543 7.28449 23.3473 7.57752C23.6403 7.87054 23.8049 8.26797 23.8049 8.68237C23.8049 9.09677 23.6403 9.4942 23.3473 9.78723C23.0543 10.0803 22.6568 10.2449 22.2424 10.2449C21.828 10.2449 21.4306 10.0803 21.1376 9.78723C20.8446 9.4942 20.6799 9.09677 20.6799 8.68237C20.6799 8.26797 20.8446 7.87054 21.1376 7.57752C21.4306 7.28449 21.828 7.11987 22.2424 7.11987ZM15.6799 8.99487C17.3375 8.99487 18.9272 9.65335 20.0993 10.8255C21.2715 11.9976 21.9299 13.5873 21.9299 15.2449C21.9299 16.9025 21.2715 18.4922 20.0993 19.6643C18.9272 20.8364 17.3375 21.4949 15.6799 21.4949C14.0223 21.4949 12.4326 20.8364 11.2605 19.6643C10.0884 18.4922 9.42993 16.9025 9.42993 15.2449C9.42993 13.5873 10.0884 11.9976 11.2605 10.8255C12.4326 9.65335 14.0223 8.99487 15.6799 8.99487ZM15.6799 11.4949C14.6854 11.4949 13.7315 11.89 13.0283 12.5932C12.325 13.2965 11.9299 14.2503 11.9299 15.2449C11.9299 16.2394 12.325 17.1933 13.0283 17.8965C13.7315 18.5998 14.6854 18.9949 15.6799 18.9949C16.6745 18.9949 17.6283 18.5998 18.3316 17.8965C19.0348 17.1933 19.4299 16.2394 19.4299 15.2449C19.4299 14.2503 19.0348 13.2965 18.3316 12.5932C17.6283 11.89 16.6745 11.4949 15.6799 11.4949Z" fill="#FEC200"/>
<path d="M66.5367 6.38243C65.3848 5.22507 64.0129 4.30739 62.5009 3.68289C60.989 3.05839 59.3672 2.73954 57.7302 2.74494C50.8709 2.74494 45.2804 8.30743 45.2804 15.1324C45.2804 17.3199 45.8583 19.4449 46.9387 21.3199L45.1799 27.7449L51.7754 26.0199C53.597 27.0074 55.6448 27.5324 57.7302 27.5324C64.5895 27.5324 70.1799 21.9699 70.1799 15.1449C70.1799 11.8324 68.886 8.71992 66.5367 6.38243ZM57.7302 25.4324C55.8709 25.4324 54.0493 24.9324 52.4538 23.9949L52.0769 23.7699L48.1573 24.7949L49.2 20.9949L48.9488 20.6074C47.9155 18.9662 47.367 17.069 47.3659 15.1324C47.3659 9.45742 52.0141 4.83243 57.7176 4.83243C60.4814 4.83243 63.0819 5.90743 65.0292 7.85743C65.9935 8.81225 66.7577 9.9481 67.2774 11.1991C67.7972 12.4501 68.0621 13.7913 68.0568 15.1449C68.0819 20.8199 63.4337 25.4324 57.7302 25.4324ZM63.4086 17.7324C63.0945 17.5824 61.5618 16.8324 61.2855 16.7199C60.9965 16.6199 60.7955 16.5699 60.5819 16.8699C60.3684 17.1824 59.7779 17.8824 59.602 18.0824C59.4262 18.2949 59.2377 18.3199 58.9236 18.1574C58.6096 18.0074 57.6046 17.6699 56.4236 16.6199C55.494 15.7949 54.8784 14.7824 54.69 14.4699C54.5141 14.1574 54.6649 13.9949 54.8282 13.8324C54.9664 13.6949 55.1422 13.4699 55.293 13.2949C55.4437 13.1199 55.5066 12.9824 55.6071 12.7824C55.7076 12.5699 55.6573 12.3949 55.5819 12.2449C55.5066 12.0949 54.8784 10.5699 54.6272 9.94492C54.3759 9.34492 54.1121 9.41992 53.9236 9.40742H53.3206C53.1071 9.40742 52.7804 9.48242 52.4915 9.79492C52.2151 10.1074 51.4111 10.8574 51.4111 12.3824C51.4111 13.9074 52.5292 15.3824 52.6799 15.5824C52.8307 15.7949 54.8784 18.9199 57.994 20.2574C58.7352 20.5824 59.3131 20.7699 59.7654 20.9074C60.5066 21.1449 61.185 21.1074 61.7252 21.0324C62.3282 20.9449 63.5719 20.2824 63.8231 19.5574C64.087 18.8324 64.087 18.2199 63.999 18.0824C63.9111 17.9449 63.7226 17.8824 63.4086 17.7324Z" fill="#FEC200"/>
<path d="M112.18 15.1676C112.15 12.7708 111.441 10.4323 110.135 8.42757C108.829 6.42284 106.981 4.83532 104.808 3.85198C102.636 2.86864 100.229 2.53043 97.8719 2.87718C95.5146 3.22393 93.3049 4.24119 91.503 5.80918C89.7011 7.37716 88.3821 9.43056 87.7012 11.7276C87.0204 14.0245 87.006 16.4695 87.6599 18.7744C88.3138 21.0793 89.6087 23.1482 91.392 24.7375C93.1754 26.3267 95.373 27.3702 97.726 27.7449V18.8307H94.601V15.1676H97.726V12.3848C97.6537 11.7378 97.7234 11.0826 97.9303 10.4657C98.1371 9.84869 98.476 9.28491 98.9231 8.81412C99.3701 8.34333 99.9144 7.977 100.518 7.74099C101.121 7.50498 101.768 7.40504 102.414 7.44824C103.351 7.46163 104.286 7.54571 105.211 7.69978V10.8441H103.648C103.379 10.8099 103.105 10.8371 102.847 10.9236C102.59 11.0101 102.355 11.1538 102.16 11.3439C101.965 11.5341 101.815 11.7659 101.721 12.0223C101.627 12.2787 101.591 12.553 101.617 12.825V15.199H105.086L104.523 18.8621H101.632V27.6663C104.585 27.1963 107.273 25.6769 109.208 23.3838C111.143 21.0907 112.198 18.1757 112.18 15.1676Z" fill="#FEC200"/>
<path fill-rule="evenodd" clip-rule="evenodd" d="M146.808 27.7449C148.763 27.7449 150.638 26.9682 152.021 25.5857C153.403 24.2032 154.18 22.3282 154.18 20.3731V10.1167C154.18 8.16155 153.403 6.2865 152.021 4.90402C150.638 3.52154 148.763 2.74487 146.808 2.74487H136.552C134.597 2.74487 132.722 3.52154 131.339 4.90402C129.957 6.2865 129.18 8.16155 129.18 10.1167V20.3731C129.18 22.3282 129.957 24.2032 131.339 25.5857C132.722 26.9682 134.597 27.7449 136.552 27.7449H146.808ZM143.874 7.24872C143.801 7.03262 143.654 6.84932 143.459 6.73153C143.264 6.61374 143.033 6.56911 142.808 6.60561C142.583 6.64211 142.378 6.75736 142.23 6.93081C142.082 7.10426 142.001 7.32461 142 7.55257V19.091C142 19.6616 141.831 20.2193 141.514 20.6936C141.197 21.168 140.747 21.5377 140.22 21.7561C139.693 21.9744 139.113 22.0315 138.553 21.9202C137.994 21.8089 137.48 21.5342 137.076 21.1308C136.673 20.7273 136.398 20.2133 136.287 19.6538C136.175 19.0942 136.232 18.5142 136.451 17.9871C136.669 17.46 137.039 17.0095 137.513 16.6926C137.988 16.3756 138.545 16.2064 139.116 16.2064C139.371 16.2064 139.615 16.1051 139.796 15.9248C139.976 15.7445 140.077 15.4999 140.077 15.2449C140.077 14.9899 139.976 14.7453 139.796 14.565C139.615 14.3846 139.371 14.2833 139.116 14.2833C138.165 14.2833 137.235 14.5653 136.445 15.0936C135.654 15.6219 135.038 16.3727 134.674 17.2512C134.31 18.1297 134.215 19.0964 134.401 20.029C134.586 20.9616 135.044 21.8182 135.716 22.4906C136.389 23.1629 137.245 23.6208 138.178 23.8063C139.11 23.9918 140.077 23.8966 140.956 23.5328C141.834 23.1689 142.585 22.5527 143.113 21.762C143.642 20.9714 143.924 20.0419 143.924 19.091V10.7038C144.907 11.6167 146.291 12.3603 148.09 12.3603C148.345 12.3603 148.59 12.259 148.77 12.0786C148.95 11.8983 149.052 11.6537 149.052 11.3987C149.052 11.1437 148.95 10.8991 148.77 10.7188C148.59 10.5385 148.345 10.4372 148.09 10.4372C146.844 10.4372 145.897 9.92436 145.194 9.25898C144.476 8.57692 144.043 7.75513 143.874 7.24872Z" fill="#FEC200"/>
</svg>
