<svg width="21" height="26" viewBox="0 0 21 26" fill="none" xmlns="http://www.w3.org/2000/svg">
<path fill-rule="evenodd" clip-rule="evenodd" d="M3.86419 0C3.18096 0 2.52571 0.271412 2.04259 0.75453C1.55948 1.23765 1.28806 1.89289 1.28806 2.57613V3.86419C0.946447 3.86419 0.618824 3.99989 0.377265 4.24145C0.135706 4.48301 0 4.81064 0 5.15225C0 5.49387 0.135706 5.82149 0.377265 6.06305C0.618824 6.30461 0.946447 6.44031 1.28806 6.44031V7.72838C0.946447 7.72838 0.618824 7.86408 0.377265 8.10564C0.135706 8.3472 0 8.67482 0 9.01644C0 9.35805 0.135706 9.68568 0.377265 9.92724C0.618824 10.1688 0.946447 10.3045 1.28806 10.3045V11.5926C0.946447 11.5926 0.618824 11.7283 0.377265 11.9698C0.135706 12.2114 0 12.539 0 12.8806C0 13.2222 0.135706 13.5499 0.377265 13.7914C0.618824 14.033 0.946447 14.1687 1.28806 14.1687V15.4568C0.946447 15.4568 0.618824 15.5925 0.377265 15.834C0.135706 16.0756 0 16.4032 0 16.7448C0 17.0864 0.135706 17.4141 0.377265 17.6556C0.618824 17.8972 0.946447 18.0329 1.28806 18.0329V19.3209C0.946447 19.3209 0.618824 19.4566 0.377265 19.6982C0.135706 19.9398 0 20.2674 0 20.609C0 20.9506 0.135706 21.2782 0.377265 21.5198C0.618824 21.7614 0.946447 21.8971 1.28806 21.8971V23.1851C1.28806 23.8684 1.55948 24.5236 2.04259 25.0067C2.52571 25.4898 3.18096 25.7613 3.86419 25.7613H18.0329C18.7161 25.7613 19.3714 25.4898 19.8545 25.0067C20.3376 24.5236 20.609 23.8684 20.609 23.1851V2.57613C20.609 1.89289 20.3376 1.23765 19.8545 0.75453C19.3714 0.271412 18.7161 0 18.0329 0H3.86419ZM7.72838 10.3045C7.72838 9.27966 8.13549 8.29678 8.86017 7.57211C9.58485 6.84743 10.5677 6.44031 11.5926 6.44031C12.6174 6.44031 13.6003 6.84743 14.325 7.57211C15.0496 8.29678 15.4568 9.27966 15.4568 10.3045C15.4568 11.3293 15.0496 12.3122 14.325 13.0369C13.6003 13.7616 12.6174 14.1687 11.5926 14.1687C10.5677 14.1687 9.58485 13.7616 8.86017 13.0369C8.13549 12.3122 7.72838 11.3293 7.72838 10.3045ZM6.44031 19.3209C6.44031 18.2961 6.84743 17.3132 7.57211 16.5885C8.29678 15.8639 9.27966 15.4568 10.3045 15.4568H12.8806C13.9055 15.4568 14.8883 15.8639 15.613 16.5885C16.3377 17.3132 16.7448 18.2961 16.7448 19.3209C16.7448 19.6626 16.6091 19.9902 16.3676 20.2317C16.126 20.4733 15.7984 20.609 15.4568 20.609H7.72838C7.38676 20.609 7.05914 20.4733 6.81758 20.2317C6.57602 19.9902 6.44031 19.6626 6.44031 19.3209Z" fill="white"/>
</svg>
