<svg width="35" height="35" viewBox="0 0 35 35" fill="none" xmlns="http://www.w3.org/2000/svg">
<path fill-rule="evenodd" clip-rule="evenodd" d="M10.5526 1.86667C11.0956 0.765334 12.2671 0 13.6209 0H21.3791C22.7329 0 23.9024 0.765334 24.4474 1.86667C25.7722 1.87787 26.8059 1.93573 27.7292 2.28293C28.8313 2.69784 29.7897 3.40296 30.4949 4.3176C31.2068 5.23973 31.5423 6.42133 32 8.0472L33.4392 13.1283L33.9822 14.6981L34.0288 14.7541C35.7763 16.9083 34.9443 20.1115 33.2801 26.516C32.2211 30.5909 31.6936 32.6275 30.1148 33.8147C28.536 35 26.354 35 21.99 35H13.01C8.646 35 6.464 35 4.8852 33.8147C3.30641 32.6275 2.77692 30.5909 1.71987 26.516C0.0557417 20.1115 -0.776329 16.9083 0.971201 14.7541L1.01775 14.6981L1.56082 13.1283L2.99997 8.0472C3.45964 6.42133 3.79518 5.23787 4.50505 4.31573C5.21052 3.40178 6.169 2.69733 7.2708 2.28293C8.1941 1.93573 9.2259 1.876 10.5526 1.86667ZM10.5564 4.67227C9.2725 4.68533 8.7565 4.732 8.3298 4.89253C7.7363 5.11594 7.22 5.49567 6.8403 5.98827C6.4989 6.43067 6.2972 7.04853 5.73472 9.04027L4.62918 12.9397C6.6075 12.6 9.3112 12.6 13.008 12.6H21.99C25.6888 12.6 28.3905 12.6 30.3689 12.936L29.2653 9.03653C28.7028 7.0448 28.5011 6.42693 28.1597 5.98453C27.7799 5.49194 27.2637 5.1122 26.6702 4.8888C26.2435 4.72827 25.7275 4.6816 24.4436 4.66853C24.1682 5.22638 23.7341 5.69766 23.1917 6.02773C22.6493 6.35779 22.0208 6.5331 21.3791 6.53333H13.6209C12.9794 6.53327 12.351 6.35823 11.8087 6.02851C11.2663 5.6988 10.8321 5.22977 10.5564 4.67227Z" fill="#FEC200"/>
</svg>
