<svg width="21" height="21" viewBox="0 0 21 21" fill="none" xmlns="http://www.w3.org/2000/svg">
<path d="M2.34193 20.609C1.6979 20.609 1.14677 20.385 0.688528 19.9369C0.23029 19.4889 0.000780644 18.9496 0 18.3191V2.28989C0 1.66017 0.229509 1.12128 0.688528 0.673227C1.14755 0.225172 1.69868 0.000763296 2.34193 0H9.36773C9.6995 0 9.9778 0.109915 10.2026 0.329744C10.4275 0.549573 10.5395 0.821306 10.5387 1.14494C10.5379 1.46858 10.4255 1.7407 10.2015 1.96129C9.97741 2.18188 9.6995 2.29141 9.36773 2.28989H2.34193V18.3191H9.36773C9.6995 18.3191 9.9778 18.429 10.2026 18.6488C10.4275 18.8687 10.5395 19.1404 10.5387 19.464C10.5379 19.7877 10.4255 20.0598 10.2015 20.2804C9.97741 20.501 9.6995 20.6105 9.36773 20.609H2.34193ZM16.5984 11.4494H8.19676C7.86499 11.4494 7.58708 11.3395 7.36303 11.1197C7.13899 10.8999 7.02658 10.6281 7.0258 10.3045C7.02502 9.98086 7.13743 9.70912 7.36303 9.48929C7.58864 9.26946 7.86655 9.15955 8.19676 9.15955H16.5984L14.4029 7.01278C14.1882 6.80287 14.0809 6.54526 14.0809 6.23994C14.0809 5.93462 14.1882 5.66747 14.4029 5.43848C14.6176 5.20949 14.8908 5.09004 15.2226 5.08012C15.5543 5.07019 15.8373 5.18011 16.0715 5.40986L20.2577 9.50303C20.4919 9.73202 20.609 9.99918 20.609 10.3045C20.609 10.6098 20.4919 10.877 20.2577 11.106L16.0715 15.1991C15.8373 15.4281 15.5594 15.538 15.2378 15.5289C14.9162 15.5197 14.6379 15.4003 14.4029 15.1705C14.1882 14.9415 14.0859 14.6698 14.0961 14.3553C14.1062 14.0408 14.2183 13.7783 14.4322 13.5676L16.5984 11.4494Z" fill="#AF2222"/>
</svg>
