<svg width="14" height="14" viewBox="0 0 14 14" fill="none" xmlns="http://www.w3.org/2000/svg">
<path d="M6.96237 11.1419L3.58727 13.1751C3.43817 13.27 3.28229 13.3106 3.11963 13.2971C2.95698 13.2835 2.81465 13.2293 2.69266 13.1344C2.57067 13.0396 2.47579 12.9211 2.40802 12.779C2.34024 12.637 2.32669 12.4776 2.36735 12.3008L3.26196 8.45809L0.27316 5.87593C0.137614 5.75394 0.0530332 5.61487 0.0194177 5.45872C-0.0141978 5.30257 -0.00416745 5.15022 0.0495089 5.00166C0.103185 4.8531 0.184513 4.73111 0.293492 4.63568C0.402472 4.54026 0.551572 4.47926 0.740795 4.4527L4.68519 4.10705L6.21009 0.487967C6.27786 0.325311 6.38305 0.203319 6.52564 0.121992C6.66824 0.0406638 6.81381 0 6.96237 0C7.11093 0 7.25651 0.0406638 7.3991 0.121992C7.5417 0.203319 7.64688 0.325311 7.71465 0.487967L9.23955 4.10705L13.1839 4.4527C13.3737 4.47981 13.5228 4.5408 13.6313 4.63568C13.7397 4.73057 13.821 4.85256 13.8752 5.00166C13.9295 5.15076 13.9398 5.30339 13.9061 5.45954C13.8725 5.61568 13.7877 5.75448 13.6516 5.87593L10.6628 8.45809L11.5574 12.3008C11.5981 12.477 11.5845 12.6364 11.5167 12.779C11.449 12.9216 11.3541 13.0401 11.2321 13.1344C11.1101 13.2288 10.9678 13.283 10.8051 13.2971C10.6425 13.3112 10.4866 13.2705 10.3375 13.1751L6.96237 11.1419Z" fill="#FEC200"/>
</svg>
